<?xml version="1.0" standalone="no"?>
<!DOCTYPE svg PUBLIC "-//W3C//DTD SVG 20010904//EN"
 "http://www.w3.org/TR/2001/REC-SVG-20010904/DTD/svg10.dtd">
<svg version="1.0" xmlns="http://www.w3.org/2000/svg"
 width="526.000000pt" height="526.000000pt" viewBox="0 0 526.000000 526.000000"
 preserveAspectRatio="xMidYMid meet">
<metadata>
Created by potrace 1.16, written by Peter Selinger 2001-2019
</metadata>
<g transform="translate(0.000000,526.000000) scale(0.100000,-0.100000)"
fill="#000000" stroke="none">
<path d="M0 2630 l0 -2630 2630 0 2630 0 0 2630 0 2630 -2630 0 -2630 0 0
-2630z m2092 1440 c-1 -102 1 -273 7 -380 10 -208 8 -220 -35 -220 -30 0 -38
17 -64 140 -27 133 -102 282 -177 356 -116 114 -272 171 -443 161 -156 -9
-278 -70 -353 -177 -52 -75 -71 -144 -65 -242 4 -66 11 -91 46 -161 68 -137
134 -196 687 -617 297 -227 422 -362 493 -532 49 -119 65 -220 59 -377 -6
-164 -31 -263 -108 -421 -46 -94 -62 -115 -153 -205 -83 -83 -117 -109 -192
-147 -49 -26 -130 -59 -180 -75 -83 -25 -101 -27 -269 -27 -197 0 -226 5 -445
79 -140 48 -216 55 -263 26 -19 -12 -42 -18 -51 -15 -17 7 -18 12 -16 124 1
114 -18 460 -35 599 -15 129 -11 161 23 161 34 0 43 -18 68 -131 57 -253 140
-430 254 -547 111 -113 236 -173 407 -194 319 -39 599 123 668 387 35 135 11
318 -58 450 -45 86 -199 235 -402 389 -323 246 -379 291 -472 379 -145 139
-224 257 -273 412 -31 98 -39 291 -16 402 45 222 173 396 365 492 156 79 324
91 576 41 225 -45 286 -39 335 30 18 25 28 31 54 28 l31 -3 -3 -185z m1602 97
c15 -22 65 -147 204 -507 179 -465 288 -749 402 -1043 68 -174 121 -319 119
-321 -2 -2 -114 -1 -248 3 l-244 6 -112 290 c-62 160 -153 394 -202 520 -50
127 -101 258 -113 293 -12 34 -25 62 -29 62 -6 0 -76 -196 -266 -740 -53 -151
-109 -311 -124 -355 l-29 -80 -60 0 c-33 0 -64 3 -68 7 -4 4 21 85 55 180 35
95 112 315 173 488 60 173 136 389 170 480 33 91 98 271 144 400 47 129 96
259 109 288 23 50 25 52 64 52 31 0 44 -5 55 -23z m364 -1954 c365 -6 415 -8
419 -22 34 -101 304 -783 330 -835 19 -38 54 -90 79 -116 46 -49 54 -74 28
-84 -9 -3 -153 -6 -320 -6 -344 0 -328 -4 -301 79 12 38 13 58 5 96 -13 61
-252 685 -294 767 l-14 28 -749 2 c-412 2 -753 6 -756 10 -14 14 -7 62 11 75
14 10 129 13 583 13 311 0 752 -3 979 -7z m-1118 -183 c0 -9 -32 -103 -70
-210 -163 -445 -185 -533 -155 -600 30 -66 23 -70 -119 -70 -68 0 -131 3 -140
6 -27 10 -18 45 23 89 57 62 76 104 199 445 61 168 115 318 121 333 10 27 13
28 76 26 53 -2 65 -5 65 -19z"/>
</g>
</svg>
